<svg xmlns="http://www.w3.org/2000/svg" viewBox="0 0 24 24"><symbol xmlns="http://www.w3.org/2000/svg" id="5kRlNWIYrxKpm0AkAoFgY" viewBox="0 0 24 24"><path fill-rule="evenodd" d="M10 2a1 1 0 011 1v7a1 1 0 01-1 1H3a1 1 0 01-1-1V3a1 1 0 011-1h7zm1 12a1 1 0 00-1-1H3a1 1 0 00-1 1v7a1 1 0 001 1h7a1 1 0 001-1v-7zm11 0a1 1 0 00-1-1h-7a1 1 0 00-1 1v7a1 1 0 001 1h7a1 1 0 001-1v-7zm-2 1h-5v5h5v-5zM4 15h5v5H4v-5zM22 3a1 1 0 00-1-1h-7a1 1 0 00-1 1v7a1 1 0 001 1h7a1 1 0 001-1V3zM9 4H4v5h5V4zm6 0h5v5h-5V4z" clip-rule="evenodd"></path></symbol><use href="#5kRlNWIYrxKpm0AkAoFgY"></use></svg>