<svg xmlns="http://www.w3.org/2000/svg" viewBox="0 0 24 24"><symbol xmlns="http://www.w3.org/2000/svg" id="p2LdpHzIlZamblQdeerpR" viewBox="0 0 24 24"><path fill-rule="evenodd" d="M3.65 1.408L.87 17.165l4.803.847 2.737-.302a4 4 0 007.973-.207l.005-.205.005-.442 4.695.827 1.736-9.848-4.782-.843-9.59-4.737-4.803-.847zM14.39 17.05l-.003.238a2 2 0 01-3.99.203l3.993-.441zM7.241 4.07l-1.97-.346-2.083 11.818 1.97.347L7.24 4.07zm1.898.753l7.473 3.692-1.13 6.402-8.284.913L9.14 4.824zm11.368 4.634l-1.97-.348-1.041 5.91 1.97.346 1.041-5.908z" clip-rule="evenodd"></path></symbol><use href="#p2LdpHzIlZamblQdeerpR"></use></svg>